<?xml version="1.0" encoding="UTF-8" standalone="no"?>
<!DOCTYPE svg PUBLIC "-//W3C//DTD SVG 1.1//EN"
 "http://www.w3.org/Graphics/SVG/1.1/DTD/svg11.dtd">
<!-- Generated by graphviz version 2.40.1 (20161225.0304)
 -->
<!-- Title: dependencies Pages: 1 -->
<svg width="504pt" height="211pt"
 viewBox="0.00 0.00 504.00 211.00" xmlns="http://www.w3.org/2000/svg" xmlns:xlink="http://www.w3.org/1999/xlink">
<g id="graph0" class="graph" transform="scale(1 1) rotate(0) translate(4 207)">
<title>dependencies</title>
<polygon fill="#ffffff" stroke="transparent" points="-4,4 -4,-207 500,-207 500,4 -4,4"/>
<text text-anchor="start" x="227.0091" y="-42.4" font-family="sans-serif" font-weight="bold" font-size="14.00" fill="#000000">Legend</text>
<polygon fill="#ffffb3" stroke="transparent" points="14,-10 14,-30 34,-30 34,-10 14,-10"/>
<text text-anchor="start" x="37.629" y="-15.4" font-family="sans-serif" font-size="14.00" fill="#000000"> &#160;Declarations</text>
<polygon fill="#8dd3c7" stroke="transparent" points="127,-10 127,-30 147,-30 147,-10 127,-10"/>
<text text-anchor="start" x="150.7251" y="-15.4" font-family="sans-serif" font-size="14.00" fill="#000000"> &#160;Module</text>
<polygon fill="#80b1d3" stroke="transparent" points="213,-10 213,-30 233,-30 233,-10 213,-10"/>
<text text-anchor="start" x="236.7812" y="-15.4" font-family="sans-serif" font-size="14.00" fill="#000000"> &#160;Bootstrap</text>
<polygon fill="#fdb462" stroke="transparent" points="310,-10 310,-30 330,-30 330,-10 310,-10"/>
<text text-anchor="start" x="333.6732" y="-15.4" font-family="sans-serif" font-size="14.00" fill="#000000"> &#160;Providers</text>
<polygon fill="#fb8072" stroke="transparent" points="406,-10 406,-30 426,-30 426,-10 406,-10"/>
<text text-anchor="start" x="429.7258" y="-15.4" font-family="sans-serif" font-size="14.00" fill="#000000"> &#160;Exports</text>
<g id="clust1" class="cluster">
<title>cluster_ProfileModule</title>
<polygon fill="none" stroke="#000000" stroke-dasharray="1,5" points="41,-70 41,-195 455,-195 455,-70 41,-70"/>
</g>
<g id="clust2" class="cluster">
<title>cluster_ProfileModule_declarations</title>
<polygon fill="none" stroke="#000000" points="171,-78 171,-130 447,-130 447,-78 171,-78"/>
</g>
<g id="clust5" class="cluster">
<title>cluster_ProfileModule_imports</title>
<polygon fill="none" stroke="#000000" points="49,-78 49,-130 163,-130 163,-78 49,-78"/>
</g>
<!-- LogoutDialogComponent -->
<g id="node1" class="node">
<title>LogoutDialogComponent</title>
<polygon fill="#ffffb3" stroke="#000000" points="438.878,-122 279.122,-122 279.122,-86 438.878,-86 438.878,-122"/>
<text text-anchor="middle" x="359" y="-99.8" font-family="Times,serif" font-size="14.00" fill="#000000">LogoutDialogComponent</text>
</g>
<!-- ProfileModule -->
<g id="node3" class="node">
<title>ProfileModule</title>
<polygon fill="#8dd3c7" stroke="#000000" points="268.65,-187 265.65,-191 244.65,-191 241.65,-187 171.35,-187 171.35,-151 268.65,-151 268.65,-187"/>
<text text-anchor="middle" x="220" y="-164.8" font-family="Times,serif" font-size="14.00" fill="#000000">ProfileModule</text>
</g>
<!-- LogoutDialogComponent&#45;&gt;ProfileModule -->
<g id="edge1" class="edge">
<title>LogoutDialogComponent&#45;&gt;ProfileModule</title>
<path fill="none" stroke="#000000" d="M279.0562,-104C270.4488,-104 264.7402,-104 264.7402,-104 264.7402,-104 264.7402,-140.8939 264.7402,-140.8939"/>
<polygon fill="#000000" stroke="#000000" points="261.2403,-140.8938 264.7402,-150.8939 268.2403,-140.8939 261.2403,-140.8938"/>
</g>
<!-- ProfilePage -->
<g id="node2" class="node">
<title>ProfilePage</title>
<polygon fill="#ffffb3" stroke="#000000" points="260.812,-122 179.188,-122 179.188,-86 260.812,-86 260.812,-122"/>
<text text-anchor="middle" x="220" y="-99.8" font-family="Times,serif" font-size="14.00" fill="#000000">ProfilePage</text>
</g>
<!-- ProfilePage&#45;&gt;ProfileModule -->
<g id="edge2" class="edge">
<title>ProfilePage&#45;&gt;ProfileModule</title>
<path fill="none" stroke="#000000" d="M220,-122.1061C220,-122.1061 220,-140.991 220,-140.991"/>
<polygon fill="#000000" stroke="#000000" points="216.5001,-140.9909 220,-150.991 223.5001,-140.991 216.5001,-140.9909"/>
</g>
<!-- SharedModule -->
<g id="node4" class="node">
<title>SharedModule</title>
<polygon fill="#8dd3c7" stroke="#000000" points="155.4231,-122 152.4231,-126 131.4231,-126 128.4231,-122 56.5769,-122 56.5769,-86 155.4231,-86 155.4231,-122"/>
<text text-anchor="middle" x="106" y="-99.8" font-family="Times,serif" font-size="14.00" fill="#000000">SharedModule</text>
</g>
<!-- SharedModule&#45;&gt;ProfileModule -->
<g id="edge3" class="edge">
<title>SharedModule&#45;&gt;ProfileModule</title>
<path fill="none" stroke="#000000" d="M155.227,-104C166.5083,-104 175.2598,-104 175.2598,-104 175.2598,-104 175.2598,-140.8939 175.2598,-140.8939"/>
<polygon fill="#000000" stroke="#000000" points="171.7599,-140.8938 175.2598,-150.8939 178.7599,-140.8939 171.7599,-140.8938"/>
</g>
</g>
</svg>
