<?xml version="1.0" encoding="UTF-8" standalone="no"?>
<!DOCTYPE svg PUBLIC "-//W3C//DTD SVG 1.1//EN"
 "http://www.w3.org/Graphics/SVG/1.1/DTD/svg11.dtd">
<!-- Generated by graphviz version 2.40.1 (20161225.0304)
 -->
<!-- Title: dependencies Pages: 1 -->
<svg width="1079pt" height="284pt"
 viewBox="0.00 0.00 1079.00 284.00" xmlns="http://www.w3.org/2000/svg" xmlns:xlink="http://www.w3.org/1999/xlink">
<g id="graph0" class="graph" transform="scale(1 1) rotate(0) translate(4 280)">
<title>dependencies</title>
<polygon fill="#ffffff" stroke="transparent" points="-4,4 -4,-280 1075,-280 1075,4 -4,4"/>
<text text-anchor="start" x="514.5091" y="-42.4" font-family="sans-serif" font-weight="bold" font-size="14.00" fill="#000000">Legend</text>
<polygon fill="#ffffb3" stroke="transparent" points="301.5,-10 301.5,-30 321.5,-30 321.5,-10 301.5,-10"/>
<text text-anchor="start" x="325.129" y="-15.4" font-family="sans-serif" font-size="14.00" fill="#000000"> &#160;Declarations</text>
<polygon fill="#8dd3c7" stroke="transparent" points="414.5,-10 414.5,-30 434.5,-30 434.5,-10 414.5,-10"/>
<text text-anchor="start" x="438.2251" y="-15.4" font-family="sans-serif" font-size="14.00" fill="#000000"> &#160;Module</text>
<polygon fill="#80b1d3" stroke="transparent" points="500.5,-10 500.5,-30 520.5,-30 520.5,-10 500.5,-10"/>
<text text-anchor="start" x="524.2812" y="-15.4" font-family="sans-serif" font-size="14.00" fill="#000000"> &#160;Bootstrap</text>
<polygon fill="#fdb462" stroke="transparent" points="597.5,-10 597.5,-30 617.5,-30 617.5,-10 597.5,-10"/>
<text text-anchor="start" x="621.1732" y="-15.4" font-family="sans-serif" font-size="14.00" fill="#000000"> &#160;Providers</text>
<polygon fill="#fb8072" stroke="transparent" points="693.5,-10 693.5,-30 713.5,-30 713.5,-10 693.5,-10"/>
<text text-anchor="start" x="717.2258" y="-15.4" font-family="sans-serif" font-size="14.00" fill="#000000"> &#160;Exports</text>
<g id="clust1" class="cluster">
<title>cluster_AppModule</title>
<polygon fill="none" stroke="#000000" stroke-dasharray="1,5" points="8,-70 8,-268 1063,-268 1063,-70 8,-70"/>
</g>
<g id="clust2" class="cluster">
<title>cluster_AppModule_declarations</title>
<polygon fill="none" stroke="#000000" points="933,-78 933,-130 1055,-130 1055,-78 933,-78"/>
</g>
<g id="clust4" class="cluster">
<title>cluster_AppModule_imports</title>
<polygon fill="none" stroke="#000000" points="781,-78 781,-130 925,-130 925,-78 781,-78"/>
</g>
<g id="clust6" class="cluster">
<title>cluster_AppModule_bootstrap</title>
<polygon fill="none" stroke="#000000" points="486,-208 486,-260 610,-260 610,-208 486,-208"/>
</g>
<g id="clust7" class="cluster">
<title>cluster_AppModule_providers</title>
<polygon fill="none" stroke="#000000" points="16,-78 16,-130 773,-130 773,-78 16,-78"/>
</g>
<!-- AppComponent -->
<g id="node1" class="node">
<title>AppComponent</title>
<polygon fill="#ffffb3" stroke="#000000" points="1046.9399,-122 941.0601,-122 941.0601,-86 1046.9399,-86 1046.9399,-122"/>
<text text-anchor="middle" x="994" y="-99.8" font-family="Times,serif" font-size="14.00" fill="#000000">AppComponent</text>
</g>
<!-- AppModule -->
<g id="node2" class="node">
<title>AppModule</title>
<polygon fill="#8dd3c7" stroke="#000000" points="589.6571,-187 586.6571,-191 565.6571,-191 562.6571,-187 506.3429,-187 506.3429,-151 589.6571,-151 589.6571,-187"/>
<text text-anchor="middle" x="548" y="-164.8" font-family="Times,serif" font-size="14.00" fill="#000000">AppModule</text>
</g>
<!-- AppComponent&#45;&gt;AppModule -->
<g id="edge1" class="edge">
<title>AppComponent&#45;&gt;AppModule</title>
<path fill="none" stroke="#000000" d="M994,-122.2921C994,-144.2057 994,-178 994,-178 994,-178 599.9586,-178 599.9586,-178"/>
<polygon fill="#000000" stroke="#000000" points="599.9586,-174.5001 589.9586,-178 599.9586,-181.5001 599.9586,-174.5001"/>
</g>
<!-- AppComponent  -->
<g id="node4" class="node">
<title>AppComponent </title>
<polygon fill="#80b1d3" stroke="#000000" points="602.439,-252 493.561,-252 493.561,-216 602.439,-216 602.439,-252"/>
<text text-anchor="middle" x="548" y="-229.8" font-family="Times,serif" font-size="14.00" fill="#000000">AppComponent </text>
</g>
<!-- AppModule&#45;&gt;AppComponent  -->
<g id="edge3" class="edge">
<title>AppModule&#45;&gt;AppComponent </title>
<path fill="none" stroke="#000000" stroke-dasharray="1,5" d="M548,-187.1061C548,-187.1061 548,-205.991 548,-205.991"/>
<polygon fill="#000000" stroke="#000000" points="544.5001,-205.9909 548,-215.991 551.5001,-205.991 544.5001,-205.9909"/>
</g>
<!-- AppRoutingModule -->
<g id="node3" class="node">
<title>AppRoutingModule</title>
<polygon fill="#8dd3c7" stroke="#000000" points="917.2744,-122 914.2744,-126 893.2744,-126 890.2744,-122 788.7256,-122 788.7256,-86 917.2744,-86 917.2744,-122"/>
<text text-anchor="middle" x="853" y="-99.8" font-family="Times,serif" font-size="14.00" fill="#000000">AppRoutingModule</text>
</g>
<!-- AppRoutingModule&#45;&gt;AppModule -->
<g id="edge2" class="edge">
<title>AppRoutingModule&#45;&gt;AppModule</title>
<path fill="none" stroke="#000000" d="M853,-122.1061C853,-141.3391 853,-169 853,-169 853,-169 599.7694,-169 599.7694,-169"/>
<polygon fill="#000000" stroke="#000000" points="599.7695,-165.5001 589.7694,-169 599.7694,-172.5001 599.7695,-165.5001"/>
</g>
<!-- AuthService -->
<g id="node5" class="node">
<title>AuthService</title>
<ellipse fill="#fdb462" stroke="#000000" cx="706" cy="-104" rx="59.1083" ry="18"/>
<text text-anchor="middle" x="706" y="-99.8" font-family="Times,serif" font-size="14.00" fill="#000000">AuthService</text>
</g>
<!-- AuthService&#45;&gt;AppModule -->
<g id="edge4" class="edge">
<title>AuthService&#45;&gt;AppModule</title>
<path fill="none" stroke="#000000" d="M706,-122.027C706,-138.3976 706,-160 706,-160 706,-160 599.9263,-160 599.9263,-160"/>
<polygon fill="#000000" stroke="#000000" points="599.9263,-156.5001 589.9263,-160 599.9262,-163.5001 599.9263,-156.5001"/>
</g>
<!-- CredentialService -->
<g id="node6" class="node">
<title>CredentialService</title>
<ellipse fill="#fdb462" stroke="#000000" cx="548" cy="-104" rx="80.4306" ry="18"/>
<text text-anchor="middle" x="548" y="-99.8" font-family="Times,serif" font-size="14.00" fill="#000000">CredentialService</text>
</g>
<!-- CredentialService&#45;&gt;AppModule -->
<g id="edge5" class="edge">
<title>CredentialService&#45;&gt;AppModule</title>
<path fill="none" stroke="#000000" d="M548,-122.1061C548,-122.1061 548,-140.991 548,-140.991"/>
<polygon fill="#000000" stroke="#000000" points="544.5001,-140.9909 548,-150.991 551.5001,-140.991 544.5001,-140.9909"/>
</g>
<!-- GenreService -->
<g id="node7" class="node">
<title>GenreService</title>
<ellipse fill="#fdb462" stroke="#000000" cx="386" cy="-104" rx="63.66" ry="18"/>
<text text-anchor="middle" x="386" y="-99.8" font-family="Times,serif" font-size="14.00" fill="#000000">GenreService</text>
</g>
<!-- GenreService&#45;&gt;AppModule -->
<g id="edge6" class="edge">
<title>GenreService&#45;&gt;AppModule</title>
<path fill="none" stroke="#000000" d="M386,-122.027C386,-138.3976 386,-160 386,-160 386,-160 496.281,-160 496.281,-160"/>
<polygon fill="#000000" stroke="#000000" points="496.281,-163.5001 506.281,-160 496.2809,-156.5001 496.281,-163.5001"/>
</g>
<!-- MovieService -->
<g id="node8" class="node">
<title>MovieService</title>
<ellipse fill="#fdb462" stroke="#000000" cx="239" cy="-104" rx="65.4072" ry="18"/>
<text text-anchor="middle" x="239" y="-99.8" font-family="Times,serif" font-size="14.00" fill="#000000">MovieService</text>
</g>
<!-- MovieService&#45;&gt;AppModule -->
<g id="edge7" class="edge">
<title>MovieService&#45;&gt;AppModule</title>
<path fill="none" stroke="#000000" d="M239,-122.1061C239,-141.3391 239,-169 239,-169 239,-169 496.3269,-169 496.3269,-169"/>
<polygon fill="#000000" stroke="#000000" points="496.3269,-172.5001 506.3269,-169 496.3269,-165.5001 496.3269,-172.5001"/>
</g>
<!-- ProfileService -->
<g id="node9" class="node">
<title>ProfileService</title>
<ellipse fill="#fdb462" stroke="#000000" cx="90" cy="-104" rx="66.0454" ry="18"/>
<text text-anchor="middle" x="90" y="-99.8" font-family="Times,serif" font-size="14.00" fill="#000000">ProfileService</text>
</g>
<!-- ProfileService&#45;&gt;AppModule -->
<g id="edge8" class="edge">
<title>ProfileService&#45;&gt;AppModule</title>
<path fill="none" stroke="#000000" d="M90,-122.2921C90,-144.2057 90,-178 90,-178 90,-178 496.1414,-178 496.1414,-178"/>
<polygon fill="#000000" stroke="#000000" points="496.1414,-181.5001 506.1414,-178 496.1414,-174.5001 496.1414,-181.5001"/>
</g>
</g>
</svg>
